<mxfile host="app.diagrams.net" modified="2023-05-17T15:55:24.690Z" agent="Mozilla/5.0 (Windows NT 10.0; Win64; x64) AppleWebKit/537.36 (KHTML, like Gecko) Chrome/113.0.0.0 Safari/537.36" version="21.3.2" etag="6faKag_Ka9cAr63XFLIn" type="github">
  <diagram name="Page-1" id="7Ez8emymwqUS_6rD8maP">
    <mxGraphModel>
      <root>
        <mxCell id="0" />
        <mxCell id="1" parent="0" />
      </root>
    </mxGraphModel>
  </diagram>
</mxfile>
